<svg width="177" height="37" viewBox="0 0 177 37" fill="none" xmlns="http://www.w3.org/2000/svg">
<path d="M12.148 24.12V15.084H14.02C16.144 15.084 17.224 15.66 18.16 17.28L22.228 24.12H28.168L24.352 17.856C23.308 16.164 22.3 14.976 20.392 14.472C24.316 14.004 27.232 11.808 27.232 7.524C27.232 2.412 23.416 0 18.196 0H7V24.12H12.148ZM18.016 4.572C20.248 4.572 21.832 5.436 21.832 7.776C21.832 10.044 20.248 10.944 18.016 10.944H12.148V4.572H18.016Z" fill="white"/>
<path d="M37.5221 24.48C43.0301 24.48 46.5221 20.7 46.5221 15.3C46.5221 9.936 43.0301 6.12 37.5221 6.12C32.1581 6.12 28.7021 9.936 28.7021 15.3C28.7021 20.7 32.1581 24.48 37.5221 24.48ZM37.5941 20.304C35.4341 20.304 33.9221 18.9 33.9221 15.3C33.9221 11.664 35.4341 10.296 37.5941 10.296C39.7901 10.296 41.3021 11.664 41.3021 15.3C41.3021 18.9 39.7901 20.304 37.5941 20.304Z" fill="white"/>
<path d="M53.1759 24.516C56.7759 24.516 58.3239 21.852 58.8999 19.548V20.736C58.8999 23.256 60.6279 24.12 62.5359 24.12H65.5599V20.016H64.5159C63.8679 20.016 63.5799 19.764 63.5799 18.972V12.924C63.5799 8.496 60.9879 6.12 56.5239 6.12C52.7439 6.12 49.8279 7.884 48.0639 9.792L50.6559 13.536C51.8799 11.772 53.9319 10.512 56.1639 10.512C58.1079 10.512 58.7919 11.34 58.9719 12.816L53.5719 14.832C50.2239 15.984 48.5319 17.532 48.5319 20.196C48.5319 23.04 50.4399 24.516 53.1759 24.516ZM53.2839 19.44C53.2839 18.756 53.7519 18.252 55.1559 17.676L58.8999 16.128V17.352C58.8999 19.512 57.5319 20.736 55.0839 20.736C53.8599 20.736 53.2839 20.268 53.2839 19.44Z" fill="white"/>
<path d="M73.1407 24.12V14.364C73.1407 11.484 73.9327 10.116 75.9847 10.116C78.0727 10.116 78.7927 11.304 78.7927 13.608V24.12H83.9407V14.364C83.9407 11.484 84.7327 10.116 86.7847 10.116C88.8727 10.116 89.5927 11.304 89.5927 13.608V24.12H94.7407V11.808C94.7407 8.172 92.9407 6.12 89.7007 6.12C86.0647 6.12 84.4807 8.676 83.9407 11.592C83.9407 8.172 82.1407 6.12 78.9007 6.12C75.2647 6.12 73.6807 8.676 73.1407 11.556V6.48H67.9927V24.12H73.1407Z" fill="white"/>
<path d="M103.554 24.12V15.084L102.798 5.364L105.714 13.392L108.702 19.944H114.102L117.09 13.392L119.97 5.364L119.25 15.084V24.12H124.398V0H117.594L113.67 8.964L111.402 16.128L109.134 8.964L105.21 0H98.4062V24.12H103.554Z" fill="white"/>
<path d="M132.242 24.516C135.842 24.516 137.39 21.852 137.966 19.548V20.736C137.966 23.256 139.694 24.12 141.602 24.12H144.626V20.016H143.582C142.934 20.016 142.646 19.764 142.646 18.972V12.924C142.646 8.496 140.054 6.12 135.59 6.12C131.81 6.12 128.894 7.884 127.13 9.792L129.722 13.536C130.946 11.772 132.998 10.512 135.23 10.512C137.174 10.512 137.858 11.34 138.038 12.816L132.638 14.832C129.29 15.984 127.598 17.532 127.598 20.196C127.598 23.04 129.506 24.516 132.242 24.516ZM132.35 19.44C132.35 18.756 132.818 18.252 134.222 17.676L137.966 16.128V17.352C137.966 19.512 136.598 20.736 134.15 20.736C132.926 20.736 132.35 20.268 132.35 19.44Z" fill="white"/>
<path d="M153.621 24.48C156.321 24.48 158.121 23.22 158.877 22.248L157.401 18.036C156.861 19.008 155.889 19.908 154.773 19.908C153.765 19.908 153.045 19.404 153.045 17.964V10.404H157.941V6.48H153.045V1.692L147.897 4.392V6.48H145.269V10.404H147.897V18.9C147.897 22.176 149.733 24.48 153.621 24.48Z" fill="white"/>
<path d="M168.381 24.48C172.341 24.48 174.717 22.752 176.049 20.844L172.917 17.712C172.269 19.224 170.937 20.304 168.453 20.304C166.149 20.304 164.493 19.116 164.169 16.632H176.193C176.301 16.236 176.373 15.228 176.373 14.472C176.373 9.864 173.565 6.12 167.949 6.12C162.765 6.12 159.345 9.864 159.345 15.3C159.345 20.736 162.765 24.48 168.381 24.48ZM167.985 10.08C170.289 10.08 171.549 11.34 171.729 13.68H164.169C164.421 11.304 165.789 10.08 167.985 10.08Z" fill="white"/>
<path d="M-0.000107422 36.856C10.6587 28.9251 58.6589 18.9667 98.9243 36.4072C76.6587 30.9168 31.1587 26.9334 -0.000107422 36.856Z" fill="#F0F9FF"/>
</svg>
